<svg xmlns="http://www.w3.org/2000/svg"> <symbol viewBox="0 0 512 512" id="icon-vie" class="icon-flag"> <circle style="fill:#D80027;" cx="256" cy="256" r="256"/> <polygon style="fill:#FFDA44;" points="256,133.565 283.628,218.594 373.033,218.594 300.702,271.144 328.33,356.174 256,303.623 183.67,356.174 211.298,271.144 138.968,218.594 228.372,218.594 "/> <g></g> <g></g> <g></g> <g></g> <g></g> <g></g> <g></g> <g></g> <g></g> <g></g> <g></g> <g></g> <g></g> <g></g> <g></g> </symbol> <symbol viewBox="0 0 512 512" id="icon-vnd" class="icon-flag"> <circle style="fill:#D80027;" cx="256" cy="256" r="256"/> <polygon style="fill:#FFDA44;" points="256,133.565 283.628,218.594 373.033,218.594 300.702,271.144 328.33,356.174 256,303.623 183.67,356.174 211.298,271.144 138.968,218.594 228.372,218.594 "/> <g></g> <g></g> <g></g> <g></g> <g></g> <g></g> <g></g> <g></g> <g></g> <g></g> <g></g> <g></g> <g></g> <g></g> <g></g> </symbol> <symbol viewBox="-49 141 512 512" id="icon-chn" class="icon-flag"> <style type="text/css"> .st0{fill: #D80027;}.st1{fill: #FFDA44;}</style> <circle class="st0" cx="207" cy="397" r="256"/> <g> <polygon class="st1" points="91.1,296.8 113.2,364.8 184.7,364.8 126.9,406.9 149,474.9 91.1,432.9 33.2,474.9 55.4,406.9 -2.5,364.8 69,364.8 "/> <polygon class="st1" points="254.5,537.5 237.6,516.7 212.6,526.4 227.1,503.9 210.2,483 236.1,489.9 250.7,467.4 252.1,494.2 278.1,501.1 253,510.7 "/> <polygon class="st1" points="288.1,476.5 296.1,450.9 274.2,435.4 301,435 308.9,409.4 317.6,434.8 344.4,434.5 322.9,450.5 331.5,475.9 309.6,460.4 "/> <polygon class="st1" points="333.4,328.9 321.6,353 340.8,371.7 314.3,367.9 302.5,391.9 297.9,365.5 271.3,361.7 295.1,349.2 290.5,322.7 309.7,341.4 "/> <polygon class="st1" points="255.2,255.9 253.2,282.6 278.1,292.7 252,299.1 250.1,325.9 236,303.1 209.9,309.5 227.2,289 213,266.3 237.9,276.4 "/> </g> </symbol> <symbol viewBox="-49 141 512 512" id="icon-cny" class="icon-flag"> <style type="text/css"> .st0{fill: #D80027;}.st1{fill: #FFDA44;}</style> <circle class="st0" cx="207" cy="397" r="256"/> <g> <polygon class="st1" points="91.1,296.8 113.2,364.8 184.7,364.8 126.9,406.9 149,474.9 91.1,432.9 33.2,474.9 55.4,406.9 -2.5,364.8 69,364.8 "/> <polygon class="st1" points="254.5,537.5 237.6,516.7 212.6,526.4 227.1,503.9 210.2,483 236.1,489.9 250.7,467.4 252.1,494.2 278.1,501.1 253,510.7 "/> <polygon class="st1" points="288.1,476.5 296.1,450.9 274.2,435.4 301,435 308.9,409.4 317.6,434.8 344.4,434.5 322.9,450.5 331.5,475.9 309.6,460.4 "/> <polygon class="st1" points="333.4,328.9 321.6,353 340.8,371.7 314.3,367.9 302.5,391.9 297.9,365.5 271.3,361.7 295.1,349.2 290.5,322.7 309.7,341.4 "/> <polygon class="st1" points="255.2,255.9 253.2,282.6 278.1,292.7 252,299.1 250.1,325.9 236,303.1 209.9,309.5 227.2,289 213,266.3 237.9,276.4 "/> </g> </symbol> <symbol viewBox="0 0 512 512" id="icon-jpn" class="icon-flag"> <circle style="fill:#F0F0F0;" cx="256" cy="256" r="256"/> <circle style="fill:#D80027;" cx="256" cy="256" r="111.304"/> <g></g> <g></g> <g></g> <g></g> <g></g> <g></g> <g></g> <g></g> <g></g> <g></g> <g></g> <g></g> <g></g> <g></g> <g></g> </symbol> <symbol viewBox="0 0 512 512" id="icon-jpy" class="icon-flag"> <circle style="fill:#F0F0F0;" cx="256" cy="256" r="256"/> <circle style="fill:#D80027;" cx="256" cy="256" r="111.304"/> <g></g> <g></g> <g></g> <g></g> <g></g> <g></g> <g></g> <g></g> <g></g> <g></g> <g></g> <g></g> <g></g> <g></g> <g></g> </symbol> <symbol viewBox="0 0 512 512" id="icon-eur" class="icon-flag"> <circle style="fill:#0052B4;" cx="256" cy="256" r="256"/> <g> <polygon style="fill:#FFDA44;" points="256.001,100.174 264.29,125.683 291.11,125.683 269.411,141.448 277.7,166.957 256.001,151.191 234.301,166.957 242.59,141.448 220.891,125.683 247.712,125.683 "/> <polygon style="fill:#FFDA44;" points="145.814,145.814 169.714,157.99 188.679,139.026 184.482,165.516 208.381,177.693 181.89,181.889 177.694,208.381 165.517,184.482 139.027,188.679 157.992,169.714 "/> <polygon style="fill:#FFDA44;" points="100.175,256 125.684,247.711 125.684,220.89 141.448,242.59 166.958,234.301 151.191,256 166.958,277.699 141.448,269.411 125.684,291.11 125.684,264.289 "/> <polygon style="fill:#FFDA44;" points="145.814,366.186 157.991,342.286 139.027,323.321 165.518,327.519 177.693,303.62 181.89,330.111 208.38,334.307 184.484,346.484 188.679,372.974 169.714,354.009 "/> <polygon style="fill:#FFDA44;" points="256.001,411.826 247.711,386.317 220.891,386.317 242.591,370.552 234.301,345.045 256.001,360.809 277.7,345.045 269.411,370.552 291.11,386.317 264.289,386.317 "/> <polygon style="fill:#FFDA44;" points="366.187,366.186 342.288,354.01 323.322,372.975 327.519,346.483 303.622,334.307 330.112,330.111 334.308,303.62 346.484,327.519 372.974,323.321 354.009,342.288 "/> <polygon style="fill:#FFDA44;" points="411.826,256 386.317,264.289 386.317,291.11 370.552,269.41 345.045,277.699 360.81,256 345.045,234.301 370.553,242.59 386.317,220.89 386.317,247.712 "/> <polygon style="fill:#FFDA44;" points="366.187,145.814 354.01,169.714 372.975,188.679 346.483,184.481 334.308,208.38 330.112,181.889 303.622,177.692 327.519,165.516 323.322,139.027 342.289,157.991 "/> </g> <g></g> <g></g> <g></g> <g></g> <g></g> <g></g> <g></g> <g></g> <g></g> <g></g> <g></g> <g></g> <g></g> <g></g> <g></g> </symbol> <symbol viewBox="0 0 512 512" id="icon-aus" class="icon-flag"> <path style="fill:#0052B4;" d="M512,256c0,141.384-114.616,256-256,256S0,397.384,0,256C0,256.06,256,0.029,256,0 C397.384,0,512,114.616,512,256z"/> <g> <path style="fill:#F0F0F0;" d="M256,0c-0.014,0-0.029,0.001-0.043,0.001L256,0L256,0z"/> <path style="fill:#F0F0F0;" d="M255.315,256H256c0-0.232,0-0.454,0-0.685C255.772,255.544,255.544,255.772,255.315,256z"/> <path style="fill:#F0F0F0;" d="M256,133.566c0-45.045,0-74.562,0-133.565h-0.043C114.592,0.024,0,114.629,0,256h133.565v-75.212 L208.777,256h46.539c0.229-0.228,0.457-0.456,0.685-0.685c0-17.247,0-32.636,0-46.536l-75.213-75.213H256z"/> </g> <g> <path style="fill:#D80027;" d="M129.515,33.391C89.476,56.19,56.19,89.476,33.391,129.515V256h66.783V100.175v-0.001H256 c0-21.063,0-41.129,0-66.783H129.515z"/> <path style="fill:#D80027;" d="M256,224.519l-90.953-90.952h-31.481c0-0.001,0,0,0,0L255.999,256H256 C256,256,256,234.295,256,224.519z"/> </g> <g> <polygon style="fill:#F0F0F0;" points="154.395,300.522 168.445,329.9 200.172,322.567 185.964,351.869 211.478,372.102 179.711,379.262 179.8,411.826 154.395,391.453 128.991,411.826 129.08,379.262 97.312,372.102 122.827,351.869 108.617,322.567 140.346,329.9 "/> <polygon style="fill:#F0F0F0;" points="383.284,356.174 390.309,370.863 406.173,367.196 399.068,381.847 411.826,391.964 395.942,395.544 395.986,411.826 383.284,401.639 370.582,411.826 370.626,395.544 354.743,391.964 367.5,381.847 360.396,367.196 376.259,370.863 "/> <polygon style="fill:#F0F0F0;" points="317.933,200.348 324.957,215.038 340.821,211.37 333.717,226.021 346.474,236.138 330.591,239.718 330.634,256 317.933,245.813 305.231,256 305.274,239.718 289.391,236.138 302.148,226.021 295.044,211.37 310.908,215.038 "/> <polygon style="fill:#F0F0F0;" points="383.284,111.304 390.309,125.994 406.173,122.327 399.069,136.978 411.825,147.094 395.942,150.675 395.986,166.957 383.284,156.77 370.582,166.957 370.626,150.675 354.743,147.094 367.499,136.978 360.396,122.327 376.259,125.994 "/> <polygon style="fill:#F0F0F0;" points="440.368,178.087 447.392,192.777 463.256,189.109 456.152,203.76 468.909,213.877 453.025,217.458 453.069,233.739 440.368,223.553 427.666,233.739 427.709,217.458 411.826,213.877 424.583,203.76 417.479,189.109 433.342,192.777 "/> <polygon style="fill:#F0F0F0;" points="399.55,256 405.075,273.006 422.957,273.006 408.49,283.517 414.017,300.522 399.55,290.012 385.084,300.522 390.609,283.517 376.143,273.006 394.024,273.006 "/> </g> <g></g> <g></g> <g></g> <g></g> <g></g> <g></g> <g></g> <g></g> <g></g> <g></g> <g></g> <g></g> <g></g> <g></g> <g></g> </symbol> <symbol viewBox="0 0 512 512" id="icon-aud" class="icon-flag"> <path style="fill:#0052B4;" d="M512,256c0,141.384-114.616,256-256,256S0,397.384,0,256C0,256.06,256,0.029,256,0 C397.384,0,512,114.616,512,256z"/> <g> <path style="fill:#F0F0F0;" d="M256,0c-0.014,0-0.029,0.001-0.043,0.001L256,0L256,0z"/> <path style="fill:#F0F0F0;" d="M255.315,256H256c0-0.232,0-0.454,0-0.685C255.772,255.544,255.544,255.772,255.315,256z"/> <path style="fill:#F0F0F0;" d="M256,133.566c0-45.045,0-74.562,0-133.565h-0.043C114.592,0.024,0,114.629,0,256h133.565v-75.212 L208.777,256h46.539c0.229-0.228,0.457-0.456,0.685-0.685c0-17.247,0-32.636,0-46.536l-75.213-75.213H256z"/> </g> <g> <path style="fill:#D80027;" d="M129.515,33.391C89.476,56.19,56.19,89.476,33.391,129.515V256h66.783V100.175v-0.001H256 c0-21.063,0-41.129,0-66.783H129.515z"/> <path style="fill:#D80027;" d="M256,224.519l-90.953-90.952h-31.481c0-0.001,0,0,0,0L255.999,256H256 C256,256,256,234.295,256,224.519z"/> </g> <g> <polygon style="fill:#F0F0F0;" points="154.395,300.522 168.445,329.9 200.172,322.567 185.964,351.869 211.478,372.102 179.711,379.262 179.8,411.826 154.395,391.453 128.991,411.826 129.08,379.262 97.312,372.102 122.827,351.869 108.617,322.567 140.346,329.9 "/> <polygon style="fill:#F0F0F0;" points="383.284,356.174 390.309,370.863 406.173,367.196 399.068,381.847 411.826,391.964 395.942,395.544 395.986,411.826 383.284,401.639 370.582,411.826 370.626,395.544 354.743,391.964 367.5,381.847 360.396,367.196 376.259,370.863 "/> <polygon style="fill:#F0F0F0;" points="317.933,200.348 324.957,215.038 340.821,211.37 333.717,226.021 346.474,236.138 330.591,239.718 330.634,256 317.933,245.813 305.231,256 305.274,239.718 289.391,236.138 302.148,226.021 295.044,211.37 310.908,215.038 "/> <polygon style="fill:#F0F0F0;" points="383.284,111.304 390.309,125.994 406.173,122.327 399.069,136.978 411.825,147.094 395.942,150.675 395.986,166.957 383.284,156.77 370.582,166.957 370.626,150.675 354.743,147.094 367.499,136.978 360.396,122.327 376.259,125.994 "/> <polygon style="fill:#F0F0F0;" points="440.368,178.087 447.392,192.777 463.256,189.109 456.152,203.76 468.909,213.877 453.025,217.458 453.069,233.739 440.368,223.553 427.666,233.739 427.709,217.458 411.826,213.877 424.583,203.76 417.479,189.109 433.342,192.777 "/> <polygon style="fill:#F0F0F0;" points="399.55,256 405.075,273.006 422.957,273.006 408.49,283.517 414.017,300.522 399.55,290.012 385.084,300.522 390.609,283.517 376.143,273.006 394.024,273.006 "/> </g> <g></g> <g></g> <g></g> <g></g> <g></g> <g></g> <g></g> <g></g> <g></g> <g></g> <g></g> <g></g> <g></g> <g></g> <g></g> </symbol> <symbol viewBox="0 0 512 512" id="icon-usd" class="icon-flag"> <circle style="fill:#F0F0F0;" cx="256" cy="256" r="256"/> <g> <path style="fill:#D80027;" d="M244.87,256H512c0-23.106-3.08-45.49-8.819-66.783H244.87V256z"/> <path style="fill:#D80027;" d="M244.87,122.435h229.556c-15.671-25.572-35.708-48.175-59.07-66.783H244.87V122.435z"/> <path style="fill:#D80027;" d="M256,512c60.249,0,115.626-20.824,159.356-55.652H96.644C140.374,491.176,195.751,512,256,512z"/> <path style="fill:#D80027;" d="M37.574,389.565h436.852c12.581-20.529,22.338-42.969,28.755-66.783H8.819 C15.236,346.596,24.993,369.036,37.574,389.565z"/> </g> <path style="fill:#0052B4;" d="M118.584,39.978h23.329l-21.7,15.765l8.289,25.509l-21.699-15.765L85.104,81.252l7.16-22.037 C73.158,75.13,56.412,93.776,42.612,114.552h7.475l-13.813,10.035c-2.152,3.59-4.216,7.237-6.194,10.938l6.596,20.301l-12.306-8.941 c-3.059,6.481-5.857,13.108-8.372,19.873l7.267,22.368h26.822l-21.7,15.765l8.289,25.509l-21.699-15.765l-12.998,9.444 C0.678,234.537,0,245.189,0,256h256c0-141.384,0-158.052,0-256C205.428,0,158.285,14.67,118.584,39.978z M128.502,230.4 l-21.699-15.765L85.104,230.4l8.289-25.509l-21.7-15.765h26.822l8.288-25.509l8.288,25.509h26.822l-21.7,15.765L128.502,230.4z M120.213,130.317l8.289,25.509l-21.699-15.765l-21.699,15.765l8.289-25.509l-21.7-15.765h26.822l8.288-25.509l8.288,25.509h26.822 L120.213,130.317z M220.328,230.4l-21.699-15.765L176.93,230.4l8.289-25.509l-21.7-15.765h26.822l8.288-25.509l8.288,25.509h26.822 l-21.7,15.765L220.328,230.4z M212.039,130.317l8.289,25.509l-21.699-15.765l-21.699,15.765l8.289-25.509l-21.7-15.765h26.822 l8.288-25.509l8.288,25.509h26.822L212.039,130.317z M212.039,55.743l8.289,25.509l-21.699-15.765L176.93,81.252l8.289-25.509 l-21.7-15.765h26.822l8.288-25.509l8.288,25.509h26.822L212.039,55.743z"/> <g></g> <g></g> <g></g> <g></g> <g></g> <g></g> <g></g> <g></g> <g></g> <g></g> <g></g> <g></g> <g></g> <g></g> <g></g> </symbol> <symbol viewBox="0 0 512 512" id="icon-gbr" class="icon-flag"> <circle style="fill:#F0F0F0;" cx="256" cy="256" r="256"/> <g> <path style="fill:#0052B4;" d="M52.92,100.142c-20.109,26.163-35.272,56.318-44.101,89.077h133.178L52.92,100.142z"/> <path style="fill:#0052B4;" d="M503.181,189.219c-8.829-32.758-23.993-62.913-44.101-89.076l-89.075,89.076H503.181z"/> <path style="fill:#0052B4;" d="M8.819,322.784c8.83,32.758,23.993,62.913,44.101,89.075l89.074-89.075L8.819,322.784L8.819,322.784 z"/> <path style="fill:#0052B4;" d="M411.858,52.921c-26.163-20.109-56.317-35.272-89.076-44.102v133.177L411.858,52.921z"/> <path style="fill:#0052B4;" d="M100.142,459.079c26.163,20.109,56.318,35.272,89.076,44.102V370.005L100.142,459.079z"/> <path style="fill:#0052B4;" d="M189.217,8.819c-32.758,8.83-62.913,23.993-89.075,44.101l89.075,89.075V8.819z"/> <path style="fill:#0052B4;" d="M322.783,503.181c32.758-8.83,62.913-23.993,89.075-44.101l-89.075-89.075V503.181z"/> <path style="fill:#0052B4;" d="M370.005,322.784l89.075,89.076c20.108-26.162,35.272-56.318,44.101-89.076H370.005z"/> </g> <g> <path style="fill:#D80027;" d="M509.833,222.609h-220.44h-0.001V2.167C278.461,0.744,267.317,0,256,0 c-11.319,0-22.461,0.744-33.391,2.167v220.44v0.001H2.167C0.744,233.539,0,244.683,0,256c0,11.319,0.744,22.461,2.167,33.391 h220.44h0.001v220.442C233.539,511.256,244.681,512,256,512c11.317,0,22.461-0.743,33.391-2.167v-220.44v-0.001h220.442 C511.256,278.461,512,267.319,512,256C512,244.683,511.256,233.539,509.833,222.609z"/> <path style="fill:#D80027;" d="M322.783,322.784L322.783,322.784L437.019,437.02c5.254-5.252,10.266-10.743,15.048-16.435 l-97.802-97.802h-31.482V322.784z"/> <path style="fill:#D80027;" d="M189.217,322.784h-0.002L74.98,437.019c5.252,5.254,10.743,10.266,16.435,15.048l97.802-97.804 V322.784z"/> <path style="fill:#D80027;" d="M189.217,189.219v-0.002L74.981,74.98c-5.254,5.252-10.266,10.743-15.048,16.435l97.803,97.803 H189.217z"/> <path style="fill:#D80027;" d="M322.783,189.219L322.783,189.219L437.02,74.981c-5.252-5.254-10.743-10.266-16.435-15.047 l-97.802,97.803V189.219z"/> </g> <g></g> <g></g> <g></g> <g></g> <g></g> <g></g> <g></g> <g></g> <g></g> <g></g> <g></g> <g></g> <g></g> <g></g> <g></g> </symbol> <symbol viewBox="0 0 512 512" id="icon-gbp" class="icon-flag"> <circle style="fill:#F0F0F0;" cx="256" cy="256" r="256"/> <g> <path style="fill:#0052B4;" d="M52.92,100.142c-20.109,26.163-35.272,56.318-44.101,89.077h133.178L52.92,100.142z"/> <path style="fill:#0052B4;" d="M503.181,189.219c-8.829-32.758-23.993-62.913-44.101-89.076l-89.075,89.076H503.181z"/> <path style="fill:#0052B4;" d="M8.819,322.784c8.83,32.758,23.993,62.913,44.101,89.075l89.074-89.075L8.819,322.784L8.819,322.784 z"/> <path style="fill:#0052B4;" d="M411.858,52.921c-26.163-20.109-56.317-35.272-89.076-44.102v133.177L411.858,52.921z"/> <path style="fill:#0052B4;" d="M100.142,459.079c26.163,20.109,56.318,35.272,89.076,44.102V370.005L100.142,459.079z"/> <path style="fill:#0052B4;" d="M189.217,8.819c-32.758,8.83-62.913,23.993-89.075,44.101l89.075,89.075V8.819z"/> <path style="fill:#0052B4;" d="M322.783,503.181c32.758-8.83,62.913-23.993,89.075-44.101l-89.075-89.075V503.181z"/> <path style="fill:#0052B4;" d="M370.005,322.784l89.075,89.076c20.108-26.162,35.272-56.318,44.101-89.076H370.005z"/> </g> <g> <path style="fill:#D80027;" d="M509.833,222.609h-220.44h-0.001V2.167C278.461,0.744,267.317,0,256,0 c-11.319,0-22.461,0.744-33.391,2.167v220.44v0.001H2.167C0.744,233.539,0,244.683,0,256c0,11.319,0.744,22.461,2.167,33.391 h220.44h0.001v220.442C233.539,511.256,244.681,512,256,512c11.317,0,22.461-0.743,33.391-2.167v-220.44v-0.001h220.442 C511.256,278.461,512,267.319,512,256C512,244.683,511.256,233.539,509.833,222.609z"/> <path style="fill:#D80027;" d="M322.783,322.784L322.783,322.784L437.019,437.02c5.254-5.252,10.266-10.743,15.048-16.435 l-97.802-97.802h-31.482V322.784z"/> <path style="fill:#D80027;" d="M189.217,322.784h-0.002L74.98,437.019c5.252,5.254,10.743,10.266,16.435,15.048l97.802-97.804 V322.784z"/> <path style="fill:#D80027;" d="M189.217,189.219v-0.002L74.981,74.98c-5.254,5.252-10.266,10.743-15.048,16.435l97.803,97.803 H189.217z"/> <path style="fill:#D80027;" d="M322.783,189.219L322.783,189.219L437.02,74.981c-5.252-5.254-10.743-10.266-16.435-15.047 l-97.802,97.803V189.219z"/> </g> <g></g> <g></g> <g></g> <g></g> <g></g> <g></g> <g></g> <g></g> <g></g> <g></g> <g></g> <g></g> <g></g> <g></g> <g></g> </symbol> <symbol viewBox="0 0 512 512" id="icon-eng" class="icon-flag"> <circle style="fill:#F0F0F0;" cx="256" cy="256" r="256"/> <g> <path style="fill:#0052B4;" d="M52.92,100.142c-20.109,26.163-35.272,56.318-44.101,89.077h133.178L52.92,100.142z"/> <path style="fill:#0052B4;" d="M503.181,189.219c-8.829-32.758-23.993-62.913-44.101-89.076l-89.075,89.076H503.181z"/> <path style="fill:#0052B4;" d="M8.819,322.784c8.83,32.758,23.993,62.913,44.101,89.075l89.074-89.075L8.819,322.784L8.819,322.784 z"/> <path style="fill:#0052B4;" d="M411.858,52.921c-26.163-20.109-56.317-35.272-89.076-44.102v133.177L411.858,52.921z"/> <path style="fill:#0052B4;" d="M100.142,459.079c26.163,20.109,56.318,35.272,89.076,44.102V370.005L100.142,459.079z"/> <path style="fill:#0052B4;" d="M189.217,8.819c-32.758,8.83-62.913,23.993-89.075,44.101l89.075,89.075V8.819z"/> <path style="fill:#0052B4;" d="M322.783,503.181c32.758-8.83,62.913-23.993,89.075-44.101l-89.075-89.075V503.181z"/> <path style="fill:#0052B4;" d="M370.005,322.784l89.075,89.076c20.108-26.162,35.272-56.318,44.101-89.076H370.005z"/> </g> <g> <path style="fill:#D80027;" d="M509.833,222.609h-220.44h-0.001V2.167C278.461,0.744,267.317,0,256,0 c-11.319,0-22.461,0.744-33.391,2.167v220.44v0.001H2.167C0.744,233.539,0,244.683,0,256c0,11.319,0.744,22.461,2.167,33.391 h220.44h0.001v220.442C233.539,511.256,244.681,512,256,512c11.317,0,22.461-0.743,33.391-2.167v-220.44v-0.001h220.442 C511.256,278.461,512,267.319,512,256C512,244.683,511.256,233.539,509.833,222.609z"/> <path style="fill:#D80027;" d="M322.783,322.784L322.783,322.784L437.019,437.02c5.254-5.252,10.266-10.743,15.048-16.435 l-97.802-97.802h-31.482V322.784z"/> <path style="fill:#D80027;" d="M189.217,322.784h-0.002L74.98,437.019c5.252,5.254,10.743,10.266,16.435,15.048l97.802-97.804 V322.784z"/> <path style="fill:#D80027;" d="M189.217,189.219v-0.002L74.981,74.98c-5.254,5.252-10.266,10.743-15.048,16.435l97.803,97.803 H189.217z"/> <path style="fill:#D80027;" d="M322.783,189.219L322.783,189.219L437.02,74.981c-5.252-5.254-10.743-10.266-16.435-15.047 l-97.802,97.803V189.219z"/> </g> <g></g> <g></g> <g></g> <g></g> <g></g> <g></g> <g></g> <g></g> <g></g> <g></g> <g></g> <g></g> <g></g> <g></g> <g></g> </symbol> <symbol viewBox="0 0 512 512" id="icon-ger" class="icon-flag"> <path style="fill:#FFDA44;" d="M15.923,345.043C52.094,442.527,145.929,512,256,512s203.906-69.473,240.077-166.957L256,322.783 L15.923,345.043z"/> <path style="fill:#000000;" d="M256,0C145.929,0,52.094,69.472,15.923,166.957L256,189.217l240.077-22.261C459.906,69.472,366.071,0,256,0z"/> <path style="fill:#D80027;" d="M15.923,166.957C5.633,194.69,0,224.686,0,256s5.633,61.31,15.923,89.043h480.155 C506.368,317.31,512,287.314,512,256s-5.632-61.31-15.923-89.043H15.923z"/> <g></g> <g></g> <g></g> <g></g> <g></g> <g></g> <g></g> <g></g> <g></g> <g></g> <g></g> <g></g> <g></g> <g></g> <g></g> </symbol> <symbol viewBox="0 0 512 512" id="icon-fra" class="icon-flag"> <circle style="fill:#F0F0F0;" cx="256" cy="256" r="256"/> <path style="fill:#D80027;" d="M512,256c0-110.071-69.472-203.906-166.957-240.077v480.155C442.528,459.906,512,366.071,512,256z"/> <path style="fill:#0052B4;" d="M0,256c0,110.071,69.473,203.906,166.957,240.077V15.923C69.473,52.094,0,145.929,0,256z"/> <g></g> <g></g> <g></g> <g></g> <g></g> <g></g> <g></g> <g></g> <g></g> <g></g> <g></g> <g></g> <g></g> <g></g> <g></g> </symbol> <symbol viewBox="0 0 512 512" id="icon-frf" class="icon-flag"> <circle style="fill:#F0F0F0;" cx="256" cy="256" r="256"/> <path style="fill:#D80027;" d="M512,256c0-110.071-69.472-203.906-166.957-240.077v480.155C442.528,459.906,512,366.071,512,256z"/> <path style="fill:#0052B4;" d="M0,256c0,110.071,69.473,203.906,166.957,240.077V15.923C69.473,52.094,0,145.929,0,256z"/> <g></g> <g></g> <g></g> <g></g> <g></g> <g></g> <g></g> <g></g> <g></g> <g></g> <g></g> <g></g> <g></g> <g></g> <g></g> </symbol> <symbol viewBox="0 0 512 512" id="icon-esp" class="icon-flag"> <path style="fill:#FFDA44;" d="M0,256c0,31.314,5.633,61.31,15.923,89.043L256,367.304l240.077-22.261 C506.367,317.31,512,287.314,512,256s-5.633-61.31-15.923-89.043L256,144.696L15.923,166.957C5.633,194.69,0,224.686,0,256z"/> <g> <path style="fill:#D80027;" d="M496.077,166.957C459.906,69.473,366.071,0,256,0S52.094,69.473,15.923,166.957H496.077z"/> <path style="fill:#D80027;" d="M15.923,345.043C52.094,442.527,145.929,512,256,512s203.906-69.473,240.077-166.957H15.923z"/> </g> <g></g> <g></g> <g></g> <g></g> <g></g> <g></g> <g></g> <g></g> <g></g> <g></g> <g></g> <g></g> <g></g> <g></g> <g></g> </symbol></svg>