<svg xmlns="http://www.w3.org/2000/svg">
    <symbol viewBox="0 0 1024 1024" class="icon icon-cart" id="icon-cart">
        <path class="path1" d="M409.6 1024c-56.464 0-102.4-45.936-102.4-102.4s45.936-102.4 102.4-102.4 102.4 45.936 102.4 102.4-45.936 102.4-102.4 102.4zM409.6 870.4c-28.232 0-51.2 22.968-51.2 51.2s22.968 51.2 51.2 51.2 51.2-22.968 51.2-51.2-22.968-51.2-51.2-51.2z"></path>
        <path class="path2" d="M768 1024c-56.464 0-102.4-45.936-102.4-102.4s45.936-102.4 102.4-102.4 102.4 45.936 102.4 102.4-45.936 102.4-102.4 102.4zM768 870.4c-28.232 0-51.2 22.968-51.2 51.2s22.968 51.2 51.2 51.2 51.2-22.968 51.2-51.2-22.968-51.2-51.2-51.2z"></path>
        <path class="path3" d="M898.021 228.688c-12.859-15.181-32.258-23.888-53.221-23.888h-626.846l-5.085-30.506c-6.72-40.315-43.998-71.894-84.869-71.894h-51.2c-14.138 0-25.6 11.462-25.6 25.6s11.462 25.6 25.6 25.6h51.2c15.722 0 31.781 13.603 34.366 29.112l85.566 513.395c6.718 40.314 43.997 71.893 84.867 71.893h512c14.139 0 25.6-11.461 25.6-25.6s-11.461-25.6-25.6-25.6h-512c-15.722 0-31.781-13.603-34.366-29.11l-12.63-75.784 510.206-44.366c39.69-3.451 75.907-36.938 82.458-76.234l34.366-206.194c3.448-20.677-1.952-41.243-14.813-56.424zM862.331 276.694l-34.366 206.194c-2.699 16.186-20.043 32.221-36.39 33.645l-514.214 44.714-50.874-305.246h618.314c5.968 0 10.995 2.054 14.155 5.782 3.157 3.73 4.357 9.024 3.376 14.912z"></path>
    </symbol>
    <symbol viewBox="0 0 576 512" class="icon icon-edit" id="icon-edit">
        <path d="M402.3 344.9l32-32c5-5 13.7-1.5 13.7 5.7V464c0 26.5-21.5 48-48 48H48c-26.5 0-48-21.5-48-48V112c0-26.5 21.5-48 48-48h273.5c7.1 0 10.7 8.6 5.7 13.7l-32 32c-1.5 1.5-3.5 2.3-5.7 2.3H48v352h352V350.5c0-2.1.8-4.1 2.3-5.6zm156.6-201.8L296.3 405.7l-90.4 10c-26.2 2.9-48.5-19.2-45.6-45.6l10-90.4L432.9 17.1c22.9-22.9 59.9-22.9 82.7 0l43.2 43.2c22.9 22.9 22.9 60 .1 82.8zM460.1 174L402 115.9 216.2 301.8l-7.3 65.3 65.3-7.3L460.1 174zm64.8-79.7l-43.2-43.2c-4.1-4.1-10.8-4.1-14.8 0L436 82l58.1 58.1 30.9-30.9c4-4.2 4-10.8-.1-14.9z"></path>
    </symbol>
    <symbol viewBox="0 0 1000 1000" class="icon icon-chevron-left-db" id="icon-chevron-left-db">
        <g><g transform="matrix(1 0 0 -1 0 1008)"><path d="M10,508l233.8,233.8l27-27L81.9,526H990v-36H81.9l188.8-188.8l-27-27L10,508z"/></g></g>
    </symbol>
    <symbol viewBox="0 0 1000 1000" class="icon icon-chevron-right-db" id="icon-chevron-right-db">
        <g><g transform="matrix(1 0 0 -1 0 1008)"><path d="M756.2,741.8L990,508L756.2,274.2l-27,27L918.1,490H10v36h908.1L729.3,714.8L756.2,741.8z"/></g></g>
    </symbol>
	<symbol viewBox="0 0 1024 1024" class="icon icon-heart" id="icon-heart">
	    <path class="path1" d="M486.4 972.8c-4.283 0-8.566-1.074-12.434-3.222-4.808-2.67-119.088-66.624-235.122-171.376-68.643-61.97-123.467-125.363-162.944-188.418-50.365-80.443-75.901-160.715-75.901-238.584 0-148.218 120.582-268.8 268.8-268.8 50.173 0 103.462 18.805 150.051 52.952 27.251 19.973 50.442 44.043 67.549 69.606 17.107-25.565 40.299-49.634 67.55-69.606 46.589-34.147 99.878-52.952 150.050-52.952 148.218 0 268.8 120.582 268.8 268.8 0 77.869-25.538 158.141-75.901 238.584-39.478 63.054-94.301 126.446-162.944 188.418-116.034 104.754-230.314 168.706-235.122 171.376-3.867 2.149-8.15 3.222-12.434 3.222zM268.8 153.6c-119.986 0-217.6 97.614-217.6 217.6 0 155.624 120.302 297.077 221.224 388.338 90.131 81.504 181.44 138.658 213.976 158.042 32.536-19.384 123.845-76.538 213.976-158.042 100.922-91.261 221.224-232.714 221.224-388.338 0-119.986-97.616-217.6-217.6-217.6-87.187 0-171.856 71.725-193.314 136.096-3.485 10.453-13.267 17.504-24.286 17.504s-20.802-7.051-24.286-17.504c-21.456-64.371-106.125-136.096-193.314-136.096z"></path>
	</symbol>

    <symbol viewBox="0 0 1024 1024" class="icon icon-user" id="icon-user">
        <path class="path1" d="M486.4 563.2c-155.275 0-281.6-126.325-281.6-281.6s126.325-281.6 281.6-281.6 281.6 126.325 281.6 281.6-126.325 281.6-281.6 281.6zM486.4 51.2c-127.043 0-230.4 103.357-230.4 230.4s103.357 230.4 230.4 230.4c127.042 0 230.4-103.357 230.4-230.4s-103.358-230.4-230.4-230.4z"></path>
        <path class="path2" d="M896 1024h-819.2c-42.347 0-76.8-34.451-76.8-76.8 0-3.485 0.712-86.285 62.72-168.96 36.094-48.126 85.514-86.36 146.883-113.634 74.957-33.314 168.085-50.206 276.797-50.206 108.71 0 201.838 16.893 276.797 50.206 61.37 27.275 110.789 65.507 146.883 113.634 62.008 82.675 62.72 165.475 62.72 168.96 0 42.349-34.451 76.8-76.8 76.8zM486.4 665.6c-178.52 0-310.267 48.789-381 141.093-53.011 69.174-54.195 139.904-54.2 140.61 0 14.013 11.485 25.498 25.6 25.498h819.2c14.115 0 25.6-11.485 25.6-25.6-0.006-0.603-1.189-71.333-54.198-140.507-70.734-92.304-202.483-141.093-381.002-141.093z"></path>
    </symbol>
    <symbol viewBox="0 0 1024 1024" class="icon icon-search" id="icon-search">
        <path class="path1" d="M966.070 981.101l-304.302-331.965c68.573-71.754 106.232-165.549 106.232-265.136 0-102.57-39.942-199-112.47-271.53s-168.96-112.47-271.53-112.47-199 39.942-271.53 112.47-112.47 168.96-112.47 271.53 39.942 199.002 112.47 271.53 168.96 112.47 271.53 112.47c88.362 0 172.152-29.667 240.043-84.248l304.285 331.947c5.050 5.507 11.954 8.301 18.878 8.301 6.179 0 12.378-2.226 17.293-6.728 10.421-9.555 11.126-25.749 1.571-36.171zM51.2 384c0-183.506 149.294-332.8 332.8-332.8s332.8 149.294 332.8 332.8-149.294 332.8-332.8 332.8-332.8-149.294-332.8-332.8z"></path>
    </symbol>
    <symbol viewBox="0 0 30.239 30.239" class="icon icon-search-2" id="icon-search2" >
    <g>
    <path d="M20.194,3.46c-4.613-4.613-12.121-4.613-16.734,0c-4.612,4.614-4.612,12.121,0,16.735   c4.108,4.107,10.506,4.547,15.116,1.34c0.097,0.459,0.319,0.897,0.676,1.254l6.718,6.718c0.979,0.977,2.561,0.977,3.535,0   c0.978-0.978,0.978-2.56,0-3.535l-6.718-6.72c-0.355-0.354-0.794-0.577-1.253-0.674C24.743,13.967,24.303,7.57,20.194,3.46z    M18.073,18.074c-3.444,3.444-9.049,3.444-12.492,0c-3.442-3.444-3.442-9.048,0-12.492c3.443-3.443,9.048-3.443,12.492,0   C21.517,9.026,21.517,14.63,18.073,18.074z"/>
    </g>
    </symbol>
    <symbol viewBox="0 0 14 14" class="icon icon-err" id="icon-err">
        <g fill="none" fill-rule="evenodd"><path d="M7 0a7 7 0 0 1 7 7 7 7 0 1 1-7-7z"/><path class="icon-error__symbol" d="M6.328 8.396l-.252-5.4h1.836l-.24 5.4H6.328zM6.04 10.16c0-.528.432-.972.96-.972s.972.444.972.972c0 .516-.444.96-.972.96a.97.97 0 0 1-.96-.96z" fill-rule="nonzero"/></g>
    </symbol>

    <symbol x="0px" y="0px" viewBox="0 0 612 612" class="icon icon-close" id="icon-close">
        <g><g><g><polygon points="612,36.004 576.521,0.603 306,270.608 35.478,0.603 0,36.004 270.522,306.011 0,575.997 35.478,611.397 306,341.411 576.521,611.397 612,575.997 341.459,306.011 "/>
        </g></g></g><g></g><g></g><g></g><g></g><g></g><g></g><g></g><g></g><g></g><g></g><g></g><g></g><g></g><g></g><g></g>
    </symbol>
    <symbol x="0px" y="0px" viewBox="0 0 482.6 482.6" class="icon icon-phone" id="icon-phone">
        <g><path d="M98.339,320.8c47.6,56.9,104.9,101.7,170.3,133.4c24.9,11.8,58.2,25.8,95.3,28.2c2.3,0.1,4.5,0.2,6.8,0.2
                c24.9,0,44.9-8.6,61.2-26.3c0.1-0.1,0.3-0.3,0.4-0.5c5.8-7,12.4-13.3,19.3-20c4.7-4.5,9.5-9.2,14.1-14
                c21.3-22.2,21.3-50.4-0.2-71.9l-60.1-60.1c-10.2-10.6-22.4-16.2-35.2-16.2c-12.8,0-25.1,5.6-35.6,16.1l-35.8,35.8
                c-3.3-1.9-6.7-3.6-9.9-5.2c-4-2-7.7-3.9-11-6c-32.6-20.7-62.2-47.7-90.5-82.4c-14.3-18.1-23.9-33.3-30.6-48.8
                c9.4-8.5,18.2-17.4,26.7-26.1c3-3.1,6.1-6.2,9.2-9.3c10.8-10.8,16.6-23.3,16.6-36s-5.7-25.2-16.6-36l-29.8-29.8
                c-3.5-3.5-6.8-6.9-10.2-10.4c-6.6-6.8-13.5-13.8-20.3-20.1c-10.3-10.1-22.4-15.4-35.2-15.4c-12.7,0-24.9,5.3-35.6,15.5l-37.4,37.4
                c-13.6,13.6-21.3,30.1-22.9,49.2c-1.9,23.9,2.5,49.3,13.9,80C32.739,229.6,59.139,273.7,98.339,320.8z M25.739,104.2
                c1.2-13.3,6.3-24.4,15.9-34l37.2-37.2c5.8-5.6,12.2-8.5,18.4-8.5c6.1,0,12.3,2.9,18,8.7c6.7,6.2,13,12.7,19.8,19.6
                c3.4,3.5,6.9,7,10.4,10.6l29.8,29.8c6.2,6.2,9.4,12.5,9.4,18.7s-3.2,12.5-9.4,18.7c-3.1,3.1-6.2,6.3-9.3,9.4
                c-9.3,9.4-18,18.3-27.6,26.8c-0.2,0.2-0.3,0.3-0.5,0.5c-8.3,8.3-7,16.2-5,22.2c0.1,0.3,0.2,0.5,0.3,0.8
                c7.7,18.5,18.4,36.1,35.1,57.1c30,37,61.6,65.7,96.4,87.8c4.3,2.8,8.9,5,13.2,7.2c4,2,7.7,3.9,11,6c0.4,0.2,0.7,0.4,1.1,0.6
                c3.3,1.7,6.5,2.5,9.7,2.5c8,0,13.2-5.1,14.9-6.8l37.4-37.4c5.8-5.8,12.1-8.9,18.3-8.9c7.6,0,13.8,4.7,17.7,8.9l60.3,60.2
                c12,12,11.9,25-0.3,37.7c-4.2,4.5-8.6,8.8-13.3,13.3c-7,6.8-14.3,13.8-20.9,21.7c-11.5,12.4-25.2,18.2-42.9,18.2
                c-1.7,0-3.5-0.1-5.2-0.2c-32.8-2.1-63.3-14.9-86.2-25.8c-62.2-30.1-116.8-72.8-162.1-127c-37.3-44.9-62.4-86.7-79-131.5
                C28.039,146.4,24.139,124.3,25.739,104.2z"/>
        </g><g></g><g></g><g></g><g></g><g></g><g></g><g></g><g></g><g></g><g></g><g></g><g></g><g></g><g></g><g></g>
    </symbol>
    <symbol viewBox="0 0 60 78.2" id="shop2">
    <g id="noun_bag_836853" transform="translate(-20 -10.9)">
    <path id="Path_17" data-name="Path 17" d="M78,31.1H65.5V27c0-8.9-7-16.1-15.5-16.1S34.5,18.1,34.5,27v4.1H22a2.006,2.006,0,0,0-2,2v50a6.018,6.018,0,0,0,6,6H74a6.018,6.018,0,0,0,6-6v-50A2.006,2.006,0,0,0,78,31.1ZM39.5,27c0-6.1,4.7-11.1,10.5-11.1s10.5,5,10.5,11.1v4.1h-21Z"/>
    </g>
    </symbol>
    <symbol x="0px" y="0px" viewBox="0 0 512 512" class="icon icon-email" id="icon-email">
        <g>
            <g>
                <g>
                    <path d="M486.4,59.733H25.6c-14.138,0-25.6,11.461-25.6,25.6v341.333c0,14.138,11.461,25.6,25.6,25.6h460.8
                        c14.138,0,25.6-11.461,25.6-25.6V85.333C512,71.195,500.539,59.733,486.4,59.733z M494.933,426.667
                        c0,4.713-3.82,8.533-8.533,8.533H25.6c-4.713,0-8.533-3.82-8.533-8.533V85.333c0-4.713,3.82-8.533,8.533-8.533h460.8
                        c4.713,0,8.533,3.82,8.533,8.533V426.667z"/>
                    <path d="M470.076,93.898c-2.255-0.197-4.496,0.51-6.229,1.966L266.982,261.239c-6.349,5.337-15.616,5.337-21.965,0L48.154,95.863
                        c-2.335-1.96-5.539-2.526-8.404-1.484c-2.865,1.042-4.957,3.534-5.487,6.537s0.582,6.06,2.917,8.02l196.864,165.367
                        c12.688,10.683,31.224,10.683,43.913,0L474.82,108.937c1.734-1.455,2.818-3.539,3.015-5.794c0.197-2.255-0.51-4.496-1.966-6.229
                        C474.415,95.179,472.331,94.095,470.076,93.898z"/>
                    <path d="M164.124,273.13c-3.021-0.674-6.169,0.34-8.229,2.65l-119.467,128c-2.162,2.214-2.956,5.426-2.074,8.392
                        c0.882,2.967,3.301,5.223,6.321,5.897c3.021,0.674,6.169-0.34,8.229-2.65l119.467-128c2.162-2.214,2.956-5.426,2.074-8.392
                        C169.563,276.061,167.145,273.804,164.124,273.13z"/>
                    <path d="M356.105,275.78c-2.059-2.31-5.208-3.324-8.229-2.65c-3.021,0.674-5.439,2.931-6.321,5.897
                        c-0.882,2.967-0.088,6.178,2.074,8.392l119.467,128c3.24,3.318,8.536,3.442,11.927,0.278c3.391-3.164,3.635-8.456,0.549-11.918
                        L356.105,275.78z"/>
                </g>
            </g></g><g></g><g></g><g></g><g></g><g></g><g></g><g></g><g></g><g></g><g></g><g></g><g></g><g></g><g></g><g></g>
    </symbol>
	<symbol viewBox="0 0 370.814 370.814" class="icon icon-chevron-left" id="icon-chevron-left">
		<g><g><polygon points="292.92,24.848 268.781,0 77.895,185.401 268.781,370.814 292.92,345.961 127.638,185.401"/></g></g><g></g><g></g><g></g><g></g><g></g><g></g><g></g><g></g><g></g><g></g><g></g><g></g><g></g><g></g><g></g>
	</symbol>
   <symbol viewBox="0 0 370.814 370.814" class="icon icon-chevron-left-2" id="icon-chevron-left-2">
        <g>
            <g>
                <path d="M153.433,255.991L381.037,18.033c4.063-4.26,3.917-11.01-0.333-15.083c-4.229-4.073-10.979-3.896-15.083,0.333    L130.954,248.616c-3.937,4.125-3.937,10.625,0,14.75L365.621,508.7c2.104,2.188,4.896,3.292,7.708,3.292    c2.646,0,5.313-0.979,7.375-2.958c4.25-4.073,4.396-10.823,0.333-15.083L153.433,255.991z"/>
            </g>
        </g>
    </symbol>
    <symbol viewBox="0 0 370.814 370.814" class="icon icon-chevron-right-2" id="icon-chevron-right-2">
        <g>
            <g>
                <path d="M370.2,237.787L135.533,3.12c-4.16-4.16-10.923-4.16-15.083,0c-4.16,4.16-4.16,10.923,0,15.083l227.136,227.115    L120.451,472.453c-4.16,4.16-4.16,10.923,0,15.083c2.091,2.069,4.821,3.115,7.552,3.115s5.461-1.045,7.531-3.115L370.2,252.869    C374.36,248.709,374.36,241.947,370.2,237.787z"/>
            </g>
        </g>
    </symbol>
    <symbol viewBox="0 0 478.448 478.448" class="icon icon-chevron-right" id="icon-chevron-right">
        <g><g><polygon points="131.659,0 100.494,32.035 313.804,239.232 100.494,446.373 131.65,478.448 377.954,239.232"/></g></g><g></g><g></g><g></g><g></g><g></g><g></g><g></g><g></g><g></g><g></g><g></g><g></g><g></g><g></g><g></g>
    </symbol>
    <symbol viewBox="0 0 498.98 284.49" class="icon icon-chevron-down" id="icon-chevron-down">
        <defs></defs><path class="cls-1" d="M80.93 271.76A35 35 0 0 1 140.68 247l189.74 189.75L520.16 247a35 35 0 1 1 49.5 49.5L355.17 511a35 35 0 0 1-49.5 0L91.18 296.5a34.89 34.89 0 0 1-10.25-24.74z" transform="translate(-80.93 -236.76)"/>
    </symbol>
    <symbol viewBox="0 0 498.98 284.49" class="icon icon-chevron-up" id="icon-chevron-up">
        <defs></defs><path class="cls-1" d="M579.91 486.24A35 35 0 0 1 520.16 511L330.42 321.25 140.68 511a35 35 0 1 1-49.5-49.5L305.67 247a35 35 0 0 1 49.5 0l214.49 214.5a34.89 34.89 0 0 1 10.25 24.74z" transform="translate(-80.93 -236.76)"/>
    </symbol>
    <symbol viewBox="0 0 16 16" class="icon icon-refresh" id="icon-refresh">
        <path d="M2.083,9H0.062H0v5l1.481-1.361C2.932,14.673,5.311,16,8,16c4.08,0,7.446-3.054,7.938-7h-2.021 c-0.476,2.838-2.944,5-5.917,5c-2.106,0-3.96-1.086-5.03-2.729L5.441,9H2.083z" />
        <path d="M8,0C3.92,0,0.554,3.054,0.062,7h2.021C2.559,4.162,5.027,2,8,2c2.169,0,4.07,1.151,5.124,2.876 L11,7h2h0.917h2.021H16V2l-1.432,1.432C13.123,1.357,10.72,0,8,0z" />
    </symbol>
    <symbol x="0px" y="0px" viewBox="0 0 96.124 96.123" class="icon icon-facebook" id="icon-facebook">
        <g><path d="M72.089,0.02L59.624,0C45.62,0,36.57,9.285,36.57,23.656v10.907H24.037c-1.083,0-1.96,0.878-1.96,1.961v15.803
            c0,1.083,0.878,1.96,1.96,1.96h12.533v39.876c0,1.083,0.877,1.96,1.96,1.96h16.352c1.083,0,1.96-0.878,1.96-1.96V54.287h14.654
            c1.083,0,1.96-0.877,1.96-1.96l0.006-15.803c0-0.52-0.207-1.018-0.574-1.386c-0.367-0.368-0.867-0.575-1.387-0.575H56.842v-9.246
            c0-4.444,1.059-6.7,6.848-6.7l8.397-0.003c1.082,0,1.959-0.878,1.959-1.96V1.98C74.046,0.899,73.17,0.022,72.089,0.02z"/></g><g></g><g></g><g></g><g></g><g></g><g></g><g></g><g></g><g></g><g></g><g></g><g></g><g></g><g></g><g></g>
    </symbol>
    <symbol x="0px" y="0px" viewBox="0 0 512 512" class="icon icon-twitter" id="icon-twitter">
        <g><g><path d="M512,97.248c-19.04,8.352-39.328,13.888-60.48,16.576c21.76-12.992,38.368-33.408,46.176-58.016
            c-20.288,12.096-42.688,20.64-66.56,25.408C411.872,60.704,384.416,48,354.464,48c-58.112,0-104.896,47.168-104.896,104.992
            c0,8.32,0.704,16.32,2.432,23.936c-87.264-4.256-164.48-46.08-216.352-109.792c-9.056,15.712-14.368,33.696-14.368,53.056
            c0,36.352,18.72,68.576,46.624,87.232c-16.864-0.32-33.408-5.216-47.424-12.928c0,0.32,0,0.736,0,1.152
            c0,51.008,36.384,93.376,84.096,103.136c-8.544,2.336-17.856,3.456-27.52,3.456c-6.72,0-13.504-0.384-19.872-1.792
            c13.6,41.568,52.192,72.128,98.08,73.12c-35.712,27.936-81.056,44.768-130.144,44.768c-8.608,0-16.864-0.384-25.12-1.44
            C46.496,446.88,101.6,464,161.024,464c193.152,0,298.752-160,298.752-298.688c0-4.64-0.16-9.12-0.384-13.568
            C480.224,136.96,497.728,118.496,512,97.248z"/></g></g><g></g><g></g><g></g><g></g><g></g><g></g><g></g><g></g><g></g><g></g><g></g><g></g><g></g><g></g><g></g>
    </symbol>
    <symbol x="0px" y="0px" viewBox="0 0 96.828 96.827" class="icon icon-google" id="icon-google">
        <g><g><path d="M62.617,0H39.525c-10.29,0-17.413,2.256-23.824,7.552c-5.042,4.35-8.051,10.672-8.051,16.912
                c0,9.614,7.33,19.831,20.913,19.831c1.306,0,2.752-0.134,4.028-0.253l-0.188,0.457c-0.546,1.308-1.063,2.542-1.063,4.468
                c0,3.75,1.809,6.063,3.558,8.298l0.22,0.283l-0.391,0.027c-5.609,0.384-16.049,1.1-23.675,5.787
                c-9.007,5.355-9.707,13.145-9.707,15.404c0,8.988,8.376,18.06,27.09,18.06c21.76,0,33.146-12.005,33.146-23.863
                c0.002-8.771-5.141-13.101-10.6-17.698l-4.605-3.582c-1.423-1.179-3.195-2.646-3.195-5.364c0-2.672,1.772-4.436,3.336-5.992
                l0.163-0.165c4.973-3.917,10.609-8.358,10.609-17.964c0-9.658-6.035-14.649-8.937-17.048h7.663c0.094,0,0.188-0.026,0.266-0.077
                l6.601-4.15c0.188-0.119,0.276-0.348,0.214-0.562C63.037,0.147,62.839,0,62.617,0z M34.614,91.535
                c-13.264,0-22.176-6.195-22.176-15.416c0-6.021,3.645-10.396,10.824-12.997c5.749-1.935,13.17-2.031,13.244-2.031
                c1.257,0,1.889,0,2.893,0.126c9.281,6.605,13.743,10.073,13.743,16.678C53.141,86.309,46.041,91.535,34.614,91.535z
                 M34.489,40.756c-11.132,0-15.752-14.633-15.752-22.468c0-3.984,0.906-7.042,2.77-9.351c2.023-2.531,5.487-4.166,8.825-4.166
                c10.221,0,15.873,13.738,15.873,23.233c0,1.498,0,6.055-3.148,9.22C40.94,39.337,37.497,40.756,34.489,40.756z"/>
            <path d="M94.982,45.223H82.814V33.098c0-0.276-0.225-0.5-0.5-0.5H77.08c-0.276,0-0.5,0.224-0.5,0.5v12.125H64.473
                c-0.276,0-0.5,0.224-0.5,0.5v5.304c0,0.275,0.224,0.5,0.5,0.5H76.58V63.73c0,0.275,0.224,0.5,0.5,0.5h5.234
                c0.275,0,0.5-0.225,0.5-0.5V51.525h12.168c0.276,0,0.5-0.223,0.5-0.5v-5.302C95.482,45.446,95.259,45.223,94.982,45.223z"/>
        </g></g><g></g><g></g><g></g><g></g><g></g><g></g><g></g><g></g><g></g><g></g><g></g><g></g><g></g><g></g><g></g>
    </symbol>
    <symbol  viewBox="0 0 384 384" class="icon icon-instagram" id="icon-instagram" ><path d="m304 0h-224c-44.113281 0-80 35.886719-80 80v224c0 44.113281 35.886719 80 80 80h224c44.113281 0 80-35.886719 80-80v-224c0-44.113281-35.886719-80-80-80zm48 304c0 26.472656-21.527344 48-48 48h-224c-26.472656 0-48-21.527344-48-48v-224c0-26.472656 21.527344-48 48-48h224c26.472656 0 48 21.527344 48 48zm0 0"/><path d="m192 88c-57.34375 0-104 46.65625-104 104s46.65625 104 104 104 104-46.65625 104-104-46.65625-104-104-104zm0 176c-39.695312 0-72-32.304688-72-72s32.304688-72 72-72 72 32.304688 72 72-32.304688 72-72 72zm0 0"/><path d="m304 56c-13.230469 0-24 10.769531-24 24s10.769531 24 24 24 24-10.769531 24-24-10.769531-24-24-24zm0 0"/>
    </symbol>

    <symbol viewBox="0 0 579.148 579.148" class="icon icon-pinterest" id="icon-pinterest">
    <g>
        <g>
            <path d="M434.924,38.847C390.561,12.954,342.107,0.01,289.574,0.01c-52.54,0-100.992,12.944-145.356,38.837    C99.854,64.741,64.725,99.87,38.837,144.228C12.944,188.597,0,237.049,0,289.584c0,58.568,15.955,111.732,47.883,159.486    c31.922,47.768,73.771,83.08,125.558,105.949c-1.01-26.896,0.625-49.137,4.902-66.732l37.326-157.607    c-6.285-12.314-9.425-27.645-9.425-45.999c0-21.365,5.404-39.217,16.212-53.538c10.802-14.333,24.003-21.5,39.59-21.5    c12.564,0,22.246,4.143,29.034,12.448c6.787,8.292,10.184,18.727,10.184,31.292c0,7.797-1.451,17.289-4.334,28.47    c-2.895,11.187-6.665,24.13-11.31,38.837c-4.651,14.701-7.98,26.451-9.994,35.252c-3.525,15.33-0.63,28.463,8.672,39.4    c9.295,10.936,21.616,16.4,36.952,16.4c26.898,0,48.955-14.951,66.176-44.865c17.217-29.914,25.826-66.236,25.826-108.973    c0-32.925-10.617-59.701-31.859-80.312c-21.242-20.606-50.846-30.918-88.795-30.918c-42.486,0-76.862,13.642-103.123,40.906    c-26.267,27.277-39.401,59.896-39.401,97.84c0,22.625,6.414,41.609,19.229,56.941c4.272,5.029,5.655,10.428,4.149,16.205    c-0.508,1.512-1.511,5.281-3.017,11.309c-1.505,6.029-2.515,9.934-3.017,11.689c-2.014,8.049-6.787,10.564-14.333,7.541    c-19.357-8.043-34.064-21.99-44.113-41.85c-10.055-19.854-15.08-42.852-15.08-68.996c0-16.842,2.699-33.685,8.103-50.527    c5.404-16.842,13.819-33.115,25.264-48.832c11.432-15.698,25.135-29.596,41.102-41.659c15.961-12.069,35.38-21.738,58.256-29.04    c22.871-7.283,47.51-10.93,73.904-10.93c35.693,0,67.744,7.919,96.146,23.751c28.402,15.839,50.086,36.329,65.043,61.463    c14.951,25.135,22.436,52.026,22.436,80.692c0,37.705-6.541,71.641-19.607,101.807c-13.072,30.166-31.549,53.855-55.43,71.072    c-23.887,17.215-51.035,25.826-81.445,25.826c-15.336,0-29.664-3.58-42.986-10.748c-13.33-7.166-22.503-15.648-27.528-25.453    c-11.31,44.486-18.097,71.018-20.361,79.555c-4.78,17.852-14.584,38.457-29.413,61.836c26.897,8.043,54.296,12.062,82.198,12.062    c52.534,0,100.987-12.943,145.35-38.83c44.363-25.895,79.492-61.023,105.387-105.393c25.887-44.365,38.838-92.811,38.838-145.352    c0-52.54-12.951-100.985-38.838-145.355C514.422,99.87,479.287,64.741,434.924,38.847z"/>
        </g>
    </g>
    </symbol>
    <symbol  viewBox="0 -91 512 512" class="icon icon-pinterest" id="icon-google-plus" ><path d="m166 60c34.667969 0 66.027344 17.789062 84 42.300781l42.597656-42.902343c-25.476562-33.128907-74.511718-59.398438-126.597656-59.398438-91.199219 0-166 73.800781-166 165s74.800781 165 166 165c75.601562 0 139.199219-50.699219 158.699219-120 4.199219-14.402344 6.300781-29.402344 6.300781-45v-15h-150v59.988281h79.5c-16.5 35.402344-52.800781 60.011719-94.5 60.011719-57.898438 0-106-47.101562-106-105s48.101562-105 106-105zm0 0"/><path d="m466 90h-60v45h-45v60h45v45h60v-45h46v-60h-46zm0 0"/></symbol>
    <symbol x="0px" y="0px" viewBox="0 0 512 512" class="icon icon-tumblr" id="icon-tumblr">
        <g>
            <g>
                <path d="M348.832,428.544c-14.208,0-27.52-3.328-38.528-10.048c-8.8-5.12-16.544-13.824-19.616-22.112
                    c-3.072-8.448-2.752-25.728-2.752-55.296V223.84h128.096v-95.808H287.936V0h-82.528c-3.328,26.336-9.312,48.192-18.112,65.088
                    c-8.416,17.216-20.256,31.776-34.24,44.096c-14.464,12.192-36.864,21.504-57.088,28.128v72.544h68.704V389.28
                    c0,23.52,2.368,41.472,7.424,53.728c4.96,12.352,13.44,23.968,26.4,34.848c12.736,11.008,27.968,19.456,46.176,25.408
                    C262.4,509.12,276.352,512,299.808,512c20.576,0,39.808-1.952,57.408-6.272c17.632-4,36.8-10.08,58.816-20.352v-76.96
                    C390.304,425.216,374.784,428.544,348.832,428.544z"/>
            </g></g><g></g><g></g><g></g><g></g><g></g><g></g><g></g><g></g><g></g><g></g><g></g><g></g><g></g><g></g><g></g>
    </symbol>
    <symbol x="0px" y="0px" viewBox="0 -16 511.99949 511" class="icon icon-snapchat" id="icon-snapchat">
        <path d="m489.4375 332.257812-22.179688-8.597656c-34.984374-13.554687-56.421874-46.179687-59.726562-83.160156h44.46875c16.570312 0 30-13.433594 30-30 0-16.570312-13.429688-30-30-30h-44.9375l1.300781-14.253906c8.0625-88.8125-62.910156-165.746094-152.363281-165.746094-88.996094 0-160.46875 76.476562-152.363281 165.746094l1.300781 14.253906h-44.9375c-16.570312 0-30 13.429688-30 30 0 16.566406 13.429688 30 30 30h45.839844l-2.6875 12.449219c-6.957032 32.257812-27.613282 58.683593-58.359375 70.679687l-20.523438 8.027344c-9.785156 2.199219-17.84375 8.671875-21.738281 17.609375-4.246094 9.753906-3.105469 21.222656 3.089844 30.671875 12.117187 18.53125 39.304687 25.328125 61.949218 29.722656 5.726563 24.988282 18.96875 36.050782 39.375 32.929688 44.707032-6.871094 47.710938-3.367188 63.828126 8.230468 7.207031 5.1875 17.183593 11.648438 32.273437 19.628907 16.007813 6.59375 34.128906 9.917969 52.425781 9.917969 20.054688 0 41.296875-3.984376 59.140625-12.027344 3.558594-2.050782 7.542969-4.730469 11.9375-7.730469 18.515625-12.601563 39.210938-28.316406 71.933594-19.734375 11.9375 3.105469 22.019531 2.109375 29.972656-2.972656 11.453125-7.292969 14.238281-20.097656 15.777344-28.34375 23.726563-4.746094 55.253906-11.527344 65.214844-35.464844 3.675781-8.863281 3.367187-18.574219-.851563-26.632812-4.234375-8.070313-12.042968-13.855469-19.160156-15.203126zm0 0"/>
    </symbol>
    <symbol x="0px" y="0px" viewBox="-21 -117 682.66672 682" class="icon icon-youtube" id="icon-youtube">
        <path d="m626.8125 64.035156c-7.375-27.417968-28.992188-49.03125-56.40625-56.414062-50.082031-13.703125-250.414062-13.703125-250.414062-13.703125s-200.324219 0-250.40625 13.183593c-26.886719 7.375-49.03125 29.519532-56.40625 56.933594-13.179688 50.078125-13.179688 153.933594-13.179688 153.933594s0 104.378906 13.179688 153.933594c7.382812 27.414062 28.992187 49.027344 56.410156 56.410156 50.605468 13.707031 250.410156 13.707031 250.410156 13.707031s200.324219 0 250.40625-13.183593c27.417969-7.378907 49.03125-28.992188 56.414062-56.40625 13.175782-50.082032 13.175782-153.933594 13.175782-153.933594s.527344-104.382813-13.183594-154.460938zm-370.601562 249.878906v-191.890624l166.585937 95.945312zm0 0"/>
    </symbol>
    <symbol x="0px" y="0px" viewBox="0 0 299.999 299.999" class="icon icon-vimeo" id="icon-vimeo">
        <g id="XMLID_518_">
            <path id="XMLID_3_" style="fill-rule:evenodd;clip-rule:evenodd;" d="M298.723,68.78c2.238-12.561,2.188-25.477-5.57-35.245
                c-10.824-13.696-33.863-14.2-49.646-11.783c-12.84,1.963-56.269,21.124-71.047,66.996c26.182-1.99,39.904,1.887,37.385,30.713
                c-1.055,12.061-7.148,25.274-13.947,37.941c-7.857,14.603-22.583,43.277-41.894,22.608c-17.394-18.602-16.088-54.179-20.065-77.871
                c-2.215-13.292-4.557-29.857-8.912-43.529c-3.753-11.757-12.359-25.932-22.884-29.004c-11.304-3.322-25.28,1.863-33.487,6.698
                C42.522,51.661,22.605,73.513,0,91.54l0,0c3.68,7.884,5.687,12.992,12.283,13.949c15.561,2.292,30.391-14.502,40.736,2.971
                c6.294,10.675,8.26,22.381,12.287,33.891c5.387,15.328,9.541,32.02,13.947,49.646c7.452,29.857,16.618,74.47,42.424,85.398
                c13.166,5.591,32.957-1.889,42.977-7.831c27.14-16.061,48.289-39.348,66.391-63.04C272.434,150.453,295.27,86.933,298.723,68.78z"
                /></g><g></g><g></g><g></g><g></g><g></g><g></g><g></g><g></g><g></g><g></g><g></g><g></g><g></g><g></g><g></g>
    </symbol>
    <symbol viewBox="0 0 33.205 33.205" id="icon-locator">
        <g>
            <path d="M16.603,17.908c-3.131,0-5.679-2.548-5.679-5.68s2.547-5.68,5.679-5.68s5.679,2.548,5.679,5.68
            S19.734,17.908,16.603,17.908z M16.603,7.549c-2.58,0-4.679,2.099-4.679,4.68s2.099,4.68,4.679,4.68s4.679-2.099,4.679-4.68
            S19.183,7.549,16.603,7.549z"></path>
            <g>
                <path d="M16.603,33.205c-0.148,0-0.288-0.065-0.383-0.179C15.736,32.449,4.376,18.811,4.376,12.229C4.376,5.486,9.861,0,16.603,0
                s12.227,5.486,12.227,12.229c0,6.583-11.36,20.22-11.843,20.798C16.891,33.14,16.75,33.205,16.603,33.205z M16.603,1
                C10.412,1,5.376,6.037,5.376,12.229c0,5.571,9.216,17.215,11.227,19.688c2.01-2.474,11.227-14.118,11.227-19.688
                C27.829,6.037,22.793,1,16.603,1z"></path>
            </g>
        </g>
    </symbol>
    <symbol viewBox="0 0 1000 1000" id="icon-phone2">
    <g><path d="M964.3,286.3c-12.2-28.2-43.7-52.2-102.5-85.8c-58.8-33.6-129.6-50.7-202.3-68c-67.1-16-144-14.3-155.5-14l-6.9,0c-6.2-0.2-86.6-2.7-156.5,13.9c-72.7,17.3-143.5,34.5-202.3,68c-58.8,33.6-90.4,57.6-102.6,85.8C23.5,314.6,1.4,362,13.5,396.6c12.1,34.6,36.2,49.3,59.6,49.7c23.4,0.4,63.6-3.2,90.7-21.2c27.1-18,57.7-42,69.4-64.4c11.7-22.4,21.1-48.4,21.2-63.7c0.1-15.4-0.6-20.2-0.6-20.2s74.1-22.1,103.4-27.1c8.9-1.5,19.8-3.2,31.3-4.7l-6.7,3.3c0,0-27.2,19.9-62.3,62.3c-35.1,42.4-58.9,76.6-86.5,128.3c-27.6,51.7-53.8,99.1-75.6,135.2c-21.8,36.1-51.4,90.1-50.6,126.1c0.7,36,3.2,64.2,22.6,94c19.4,29.8,47,52.3,98.1,68.1c23.3,7.2,45.2,11.4,69.7,13.9l1.4,0.2l0.7,0.1l0.6,0.1l1.9,0.2l0.9,0.1l1.4,0.1l0.3,0l1.1,0.1l1.4,0.1l0.1,0l1.3,0.1l1.3,0.1l0.2,0l1.4,0.1l1,0.1l0.4,0l1.4,0.1l0.8,0.1l0.6,0l1.5,0.1l0.6,0l0.9,0.1l1.5,0.1l0.3,0l1.1,0.1l1.5,0.1h0.1l1.4,0.1l1.4,0.1l0.1,0l1.5,0.1l1.1,0.1l0.4,0l1.5,0.1l0.9,0l0.7,0l1.6,0.1l0.6,0l0.9,0l1.6,0.1l0.4,0l1.2,0.1l1.6,0.1h0.2l1.4,0.1l1.5,0.1l0.1,0l1.6,0.1l1.2,0l0.4,0l1.6,0.1l1,0l0.7,0l1.7,0l0.7,0l0.9,0l1.7,0.1l0.5,0l1.2,0l1.7,0l0.2,0l1.5,0l1.6,0h0.1l1.8,0.1l1.4,0.1h0.4l1.8,0.1h1.1l0.7,0l1.8,0l0.8,0l1,0l1.8,0l0.5,0l1.3,0l1.8,0.1h0.3l1.6,0.1l1.8,0h0l1.9,0.1l1.5,0l0.4,0l1.9,0l1.3,0l0.7,0l1.9,0l0.9,0l1,0l2,0h0.6l1.4,0l2,0h0.3l1.7,0.1l2,0l0.7,0l0.7,0h0.3l0.4,0l0.7,0l0.6,0h0.1l0.7,0l0.8,0h0.2l0.6,0l0.8,0l0.5,0l0.3,0h0.8l0.8,0h0.1h0.7l0.8,0l0.4,0h0.4l0.8,0l0.8,0h0.1l0.8,0l0.8,0h0.3h0.6l0.9,0h0.6h0.2l0.9,0h0.9h0.1l0.7,0h0.9h0.5h0.4l0.9,0h0.9l0,0h0.9l0.9,0h0.4l0.5,0l0.9,0h0.8h0.2l0.9,0l0.9,0h0.2l0.7,0l0.9,0h0.6h0.3l1,0l1,0h0.1h0.9l1,0h0.5h0.5h1l0.9,0h0.1l1,0h1h0.3l0.7,0h1l0.7,0h0.3h1l1,0h0.2l0.9,0h1h0.6h0.4l1,0h1h0l1,0l1,0h0.4h0.6l1,0h0.9h0.2h1.1v0.1c13.1,0,26.3,0,39,0h2.1c20.8,0,42.4,0,63.4,0v-0.2h0.1h0.4l0.6,0h0.5l0.4,0h0.1h0.5l0.5,0h0.5h0.2l0.4,0h0.5l0.5,0h0.4h0.1h0.5l0.5,0h0.5l0.2,0h0.3h0.5l0.5,0l0.5,0h0h0.5h0.5h0.5l0.3,0h0.3h0.5h0.5l0.5,0l0.5,0h0.5l0.5,0h0.3h0.2l0.5,0h0.5l0.5,0h0l0.4,0h0.5h0.5l0.3,0h0.2h0.5l0.5,0h0.5h0.1l0.4,0h0.5l0.5,0h0.3h0.1h0.5l0.4,0h0.5h0.1l0.3,0h0.4l0.4,0h0.4h0.1h0.4l0.4,0h0.4l0.2,0h0.3l0.4,0l0.4,0h0.4h0l0.4,0h0.4l0.4,0h0.2l0.2,0l0.4,0h0.4l0.4,0l2.1,0l1.7-0.1h0.3l2,0l1.3,0h0.6l2,0l1,0l1,0l2,0l0.7,0l1.3,0l1.9,0l0.4,0l1.6,0l1.9-0.1h0l1.8,0l1.6-0.1h0.3l1.9-0.1l1.3,0l0.6,0l1.8,0l1,0l0.8,0l1.8,0l0.7,0h1.1l1.8-0.1h0.4l1.4-0.1l1.7-0.1h0.1l1.7,0l1.5,0l0.2,0l1.7,0l1.2,0l0.5,0l1.7-0.1l0.9,0l0.7,0l1.7,0l0.6,0l1,0l1.6-0.1l0.4,0l1.3,0l1.6-0.1l0.1,0l1.5-0.1l1.5-0.1h0.1l1.6-0.1l1.2-0.1l0.4,0l1.6-0.1l0.9,0l0.6,0l1.6-0.1l0.6,0l0.9,0l1.5-0.1l0.4,0l1.1-0.1l1.5-0.1l0.2,0l1.4-0.1l1.4-0.1h0.1l1.5-0.1l1.1-0.1l0.3,0l1.5-0.1l0.9-0.1l0.6,0l1.5-0.1l0.6,0l0.8-0.1l1.4-0.1l0.4,0l1-0.1l1.4-0.1l0.2,0l1.3-0.1l1.4-0.1l0.1,0l1.4-0.1l1.1-0.1l0.3,0l1.4-0.1l0.9-0.1l1.9-0.2l0.6-0.1l0.8-0.1l1.4-0.2c24.5-2.5,46.5-6.7,69.7-13.9c51.1-15.8,78.7-38.3,98.1-68.1c19.4-29.8,21.9-58,22.6-94c0.7-36-28.8-90-50.6-126.1c-21.8-36.1-48.1-83.6-75.7-135.2c-27.6-51.7-51.4-85.9-86.5-128.3c-35.1-42.5-62.3-62.3-62.3-62.3l-7-3.5c11.9,1.6,23.3,3.4,32.4,4.9c29.3,5,103.4,27.1,103.4,27.1s-0.7,4.8-0.6,20.2c0.1,15.4,9.5,41.3,21.2,63.7c11.7,22.4,42.3,46.4,69.4,64.4c27.1,18,67.3,21.6,90.7,21.2c23.4-0.4,47.5-15.1,59.6-49.7C998.6,362,976.5,314.6,964.3,286.3z M656.7,340.6c30.6,37.2,51.4,67.1,75.4,112.4c24,45.3,46.9,86.8,66,118.5c19,31.6,44.8,79,44.2,110.5c-0.6,31.5-2.8,56.3-19.7,82.4c-16.9,26.1-41,45.8-85.5,59.7c-20.3,6.3-39.4,9.9-60.8,12.2l-1.2,0.1l-0.7,0.1l-0.6,0l-1.6,0.2l-0.8,0.1l-1.2,0.1l-0.2,0l-1,0.1l-1.2,0.1h0l-1.2,0.1l-1.1,0.1l-0.1,0l-1.2,0.1l-0.9,0.1l-0.4,0l-1.3,0.1l-0.7,0.1l-0.5,0l-1.3,0.1l-0.5,0l-0.8,0.1l-1.3,0.1l-0.3,0l-1,0.1l-1.3,0.1h-0.1l-1.2,0.1l-1.2,0.1l-0.1,0l-1.3,0.1l-1,0.1l-0.3,0l-1.4,0.1l-0.8,0l-0.6,0l-1.4,0.1l-0.6,0l-0.8,0l-1.4,0.1l-0.4,0l-1,0.1l-1.4,0h-0.1l-1.3,0.1l-1.3,0h-0.1l-1.4,0.1l-1.1,0l-0.3,0l-1.4,0l-0.9,0l-0.6,0l-1.4,0.1l-0.6,0l-0.8,0l-1.5,0.1l-0.4,0l-1.1,0l-1.5,0.1h-0.2l-1.3,0l-1.5,0l-0.1,0l-1.5,0l-1.2,0l-0.3,0l-1.5,0l-1,0l-0.6,0l-1.6,0l-0.7,0l-0.9,0l-1.6,0.1l-0.5,0l-1.1,0l-1.6,0l-0.2,0l-1.4,0l-1.6,0h0l-1.7,0l-1.3,0l-0.3,0l-1.7,0l-1.1,0l-0.6,0l-1.7,0l-0.8,0l-0.9,0l-1.7,0h-0.5l-1.2,0l-1.7,0h-0.3l-1.5,0l-1.8,0h-0.4l-0.4,0h-0.4h-0.2l-0.2,0H582h-0.4l-0.4,0h0h-0.3l-0.4,0l-0.4,0h-0.2l-0.1,0h-0.4l-0.4,0h-0.4h-0.1h-0.3l-0.4,0l-0.4,0h-0.3H577h-0.4l-0.4,0h-0.4h-0.1h-0.3l-0.4,0l-0.4,0h-0.3h-0.1l-0.4,0l-0.4,0H573h-0.2h-0.3h-0.4h-0.4l-0.4,0h0h-0.4l-0.4,0H570h-0.2l-0.2,0h-0.4l-0.4,0h-0.4l-0.4,0h-0.4H567h-0.2l-0.2,0h-0.4l-0.4,0h-0.4h0l-0.4,0h-0.4l-0.4,0h-0.3h-0.2l-0.4,0h-0.5H562H562h-0.4l-0.5,0h-0.5l-0.3,0h-0.1h-0.5h-0.5l-0.5,0h-0.1l-0.4,0h-0.5h-0.5l-0.4,0h-0.1v0.2c-18.3,0-37.1,0.1-55.3,0h-1.8c-11.2,0-22.6,0-34,0v-0.1h-0.9h-0.2h-0.7l-0.9,0h-0.6H462h-0.9h-0.9h0h-0.9l-0.9,0h-0.4h-0.5l-0.9,0h-0.7h-0.1l-0.9,0H454h-0.2h-0.6l-0.9,0h-0.6l-0.3,0h-0.9l-0.9,0h-0.1h-0.8l-0.8,0h-0.4h-0.4l-0.8,0h-0.8l-0.1,0h-0.8l-0.8,0h-0.3H443h-0.8l-0.6,0h-0.2l-0.8,0l-0.8,0h-0.1h-0.7l-0.8,0l-0.5,0h-0.3h-0.8l-0.8,0h0l-0.8,0l-0.8,0h-0.3h-0.4l-0.8,0l-0.6,0h-0.1h-0.7l-0.8,0h-0.2l-0.6,0l-0.7,0h-0.5l-0.2,0h-0.7l-0.7,0h-0.1H426l-0.7,0l-0.4,0h-0.3l-0.7,0h-0.6h0l-0.7,0h-0.7h-0.2l-0.4,0h-0.7l-0.5,0h-0.2l-0.7,0l-0.7,0h-0.1l-0.5,0l-0.6,0h-0.4l-0.3,0H416l-0.6,0l-1.8,0l-1.5,0h-0.3l-1.7,0l-1.2,0h-0.6l-1.7,0l-0.9,0l-0.8,0l-1.7,0l-0.6,0l-1.1,0l-1.7,0l-0.3,0l-1.4,0l-1.6,0h0l-1.6,0l-1.4,0l-0.2,0l-1.6,0l-1.1,0l-0.5,0l-1.6-0.1l-0.8,0l-0.7,0l-1.6,0l-0.6,0l-1,0l-1.5,0l-0.3,0l-1.2,0l-1.5,0l-0.1,0l-1.4,0l-1.3,0h-0.2l-1.5-0.1l-1.1,0l-0.4,0l-1.5,0l-0.8,0l-0.6,0l-1.5-0.1l-0.6,0l-0.9,0l-1.4,0l-0.3,0l-1.1,0l-1.4-0.1H363l-1.3-0.1l-1.3-0.1h-0.1l-1.4,0l-1-0.1l-0.3,0l-1.4-0.1l-0.8,0l-0.6,0l-1.3-0.1l-0.6,0l-0.8,0l-1.3-0.1l-0.3,0l-1-0.1l-1.3-0.1l-0.1,0l-1.2-0.1l-1.2-0.1h-0.1l-1.3-0.1l-1-0.1l-0.3,0l-1.3-0.1l-0.8-0.1l-0.5,0l-1.3-0.1l-0.6,0l-0.7-0.1l-1.3-0.1l-0.3,0l-0.9-0.1l-1.2-0.1l-0.2,0l-1.1-0.1l-1.2-0.1h0l-1.3-0.1l-1-0.1l-0.3,0l-1.2-0.1l-0.8-0.1l-1.6-0.2l-0.6,0l-0.6-0.1l-1.2-0.1c-21.4-2.2-40.5-5.9-60.8-12.2c-44.5-13.9-68.6-33.6-85.5-59.7c-16.9-26.1-19.1-50.9-19.7-82.4c-0.6-31.5,25.1-78.9,44.2-110.5c19-31.7,41.9-73.2,66-118.5c24-45.3,44.8-75.2,75.4-112.4c30.6-37.2,54.4-54.6,54.4-54.6l81.3-40.8c0,0,26.4-8.3,43,0l81.3,40.8C602.3,286,626.1,303.5,656.7,340.6z M941.6,401c-20.4,13.1-52.9,6.3-80.2-8.4c-27.2-14.7-66-42.6-73.8-64.6c-7.8-22.1-2.6-67.7-2.6-67.7s-45.1-29.4-112.1-39.4c-35.7-5.3-60.8-8.4-84.9-10.6l-0.1,0l-0.1,0c-1.8-0.1-15.3-1-31.8-2.1l-0.1,0l-0.5,0l-0.3,0l-0.3,0l-0.5,0l-0.2,0l-0.7,0h0l-0.8,0h-0.1l-0.6-0.1l-0.2,0l-0.5,0l-0.4,0l-0.4,0l-0.5,0l-2.9-0.2l-0.1,0l-12-0.7h0h-0.1l-0.9-0.1l-0.9-0.1l-0.9,0l-0.9,0l-0.9-0.1l-1.9-0.1l-0.9-0.1l-0.9,0l-0.9-0.1l-0.9-0.1l-0.9,0l-0.9,0l-0.9-0.1l-0.9,0h0h0c-10.6-0.6-20.1-1-26-1.1c-17.6-0.7-44.1,2.3-45.7,2.5h0h0h0l-12.9,0.9l-0.8,0.1c-18.3,1.5-34.1,3-37,3.3l-0.3,0l-0.2,0h-0.1c-19.4,2.1-40.7,4.8-68.3,9c-67.1,10-112.1,39.4-112.1,39.4s5.2,45.7-2.6,67.7c-7.9,22-46.6,49.9-73.8,64.6c-27.2,14.7-59.7,21.5-80.1,8.4c-20.4-13.1-14.1-53.3-1-79.8c13-26.5,42.4-57.2,86.9-85.6c44.5-28.4,115.7-52,177.5-71.4c55.8-17.5,157.6-12.7,176.9-11.6c19.4-1.1,121.2-6,176.9,11.6c61.8,19.4,133,43.1,177.6,71.4c44.5,28.3,73.9,59,87,85.6C955.6,347.7,962,387.9,941.6,401z"/><path d="M305.9,607.8c0,107,86.7,193.7,193.7,193.7c107,0,193.7-86.7,193.7-193.7c0-107-86.8-193.7-193.7-193.7C392.6,414.1,305.9,500.9,305.9,607.8z M659.5,607.8c0,88-71.4,159.5-159.4,159.5c-88,0-159.5-71.4-159.5-159.5c0-88.1,71.4-159.5,159.5-159.5C588.1,448.4,659.5,519.8,659.5,607.8z"/><path d="M500,709.4c56.1,0,101.6-45.5,101.6-101.6c0-56.1-45.5-101.6-101.6-101.6c-56.1,0-101.6,45.5-101.6,101.6C398.4,663.9,443.9,709.4,500,709.4z M500,542c36.4,0,65.8,29.5,65.8,65.9c0,36.4-29.5,65.9-65.8,65.9c-36.4,0-65.9-29.5-65.9-65.9C434.2,571.5,463.6,542,500,542z"/></g>
    </symbol>
    <symbol  viewBox="0 0 551.13 551.13" id="icon_right">
        <path d="m361.679 275.565-223.896 223.897v51.668l275.565-275.565-275.565-275.565v51.668z"/>
    </symbol>
    <symbol  viewBox="0 0 240.823 240.823" id="icon_left">
    <g>
        <path id="Chevron_Right" d="M57.633,129.007L165.93,237.268c4.752,4.74,12.451,4.74,17.215,0c4.752-4.74,4.752-12.439,0-17.179   l-99.707-99.671l99.695-99.671c4.752-4.74,4.752-12.439,0-17.191c-4.752-4.74-12.463-4.74-17.215,0L57.621,111.816   C52.942,116.507,52.942,124.327,57.633,129.007z"/>
    </g>
    </symbol>
</svg>